<?xml version="1.0" encoding="UTF-8"?>
<svg version="1.1" xmlns="http://www.w3.org/2000/svg" width="360" height="360">
<path d="M0 0 C2.4078465 2.20993612 4.76298025 4.46995988 7.1159668 6.73828125 C8.08083008 7.62580078 8.08083008 7.62580078 9.06518555 8.53125 C34.73873211 32.76851423 47.86699593 69.36261916 49.24487305 103.9765625 C49.91773286 142.86785961 35.81004216 178.54155926 9.1159668 206.73828125 C8.29612305 207.62257813 7.4762793 208.506875 6.6315918 209.41796875 C-17.21047198 234.31811228 -51.50123937 249.18399057 -85.8840332 250.73828125 C-87.54305664 250.81755859 -87.54305664 250.81755859 -89.2355957 250.8984375 C-110.13193491 251.39596939 -130.11453426 248.269254 -149.2277832 239.7890625 C-151.78652005 238.7768563 -154.17500246 238.18487871 -156.8840332 237.73828125 C-156.8840332 237.07828125 -156.8840332 236.41828125 -156.8840332 235.73828125 C-158.11573242 235.39796875 -158.11573242 235.39796875 -159.37231445 235.05078125 C-163.66487534 233.44644259 -167.2346389 231.21369693 -171.0715332 228.73828125 C-171.78245117 228.28710938 -172.49336914 227.8359375 -173.22583008 227.37109375 C-176.13266902 225.52253013 -179.01762861 223.64921764 -181.8840332 221.73828125 C-181.8840332 221.07828125 -181.8840332 220.41828125 -181.8840332 219.73828125 C-183.2762207 219.36703125 -183.2762207 219.36703125 -184.6965332 218.98828125 C-188.0618893 217.66853376 -189.14318541 216.83312176 -190.8840332 213.73828125 C-190.8840332 213.07828125 -190.8840332 212.41828125 -190.8840332 211.73828125 C-191.8430957 211.58359375 -191.8430957 211.58359375 -192.8215332 211.42578125 C-193.8424707 211.08546875 -193.8424707 211.08546875 -194.8840332 210.73828125 C-195.2140332 209.74828125 -195.5440332 208.75828125 -195.8840332 207.73828125 C-196.5440332 207.73828125 -197.2040332 207.73828125 -197.8840332 207.73828125 C-197.8840332 207.07828125 -197.8840332 206.41828125 -197.8840332 205.73828125 C-198.5440332 205.40828125 -199.2040332 205.07828125 -199.8840332 204.73828125 C-200.96074136 203.6253109 -201.99884173 202.47445781 -203.0090332 201.30078125 C-203.54786133 200.68332031 -204.08668945 200.06585938 -204.6418457 199.4296875 C-205.8840332 197.73828125 -205.8840332 197.73828125 -205.8840332 195.73828125 C-206.5440332 195.73828125 -207.2040332 195.73828125 -207.8840332 195.73828125 C-208.2140332 194.74828125 -208.5440332 193.75828125 -208.8840332 192.73828125 C-209.86579207 191.72036695 -210.86824991 190.72224482 -211.8840332 189.73828125 C-221.8840332 176.45828125 -221.8840332 176.45828125 -221.8840332 169.73828125 C-222.5440332 169.40828125 -223.2040332 169.07828125 -223.8840332 168.73828125 C-225.51368074 165.5359171 -226.65190689 162.10975016 -227.8840332 158.73828125 C-228.30168945 157.61550781 -228.7193457 156.49273437 -229.1496582 155.3359375 C-233.5317476 142.9684141 -235.8618347 130.44198535 -236.69262695 117.34375 C-236.86223679 115.03497938 -237.1935857 112.83149893 -237.5715332 110.55078125 C-238.21196217 105.27209404 -237.36108323 100.08755417 -236.64648438 94.8527832 C-236.0907436 90.77532205 -235.77348831 86.86745827 -235.8840332 82.73828125 C-235.2240332 82.73828125 -234.5640332 82.73828125 -233.8840332 82.73828125 C-233.84737549 82.13387207 -233.81071777 81.52946289 -233.77294922 80.90673828 C-233.26992964 74.4489368 -231.92627542 68.72590424 -229.8215332 62.61328125 C-229.51425293 61.70674805 -229.20697266 60.80021484 -228.89038086 59.86621094 C-225.93661762 51.42222009 -222.16262476 43.5793821 -217.8840332 35.73828125 C-217.35036133 34.7534375 -216.81668945 33.76859375 -216.2668457 32.75390625 C-215.15810469 30.73687459 -214.03546313 28.73114074 -212.8840332 26.73828125 C-212.2240332 26.73828125 -211.5640332 26.73828125 -210.8840332 26.73828125 C-210.5952832 26.16078125 -210.3065332 25.58328125 -210.0090332 24.98828125 C-208.96736654 22.90494792 -207.92569987 20.82161458 -206.8840332 18.73828125 C-206.2240332 18.73828125 -205.5640332 18.73828125 -204.8840332 18.73828125 C-204.7912207 17.87203125 -204.7912207 17.87203125 -204.6965332 16.98828125 C-203.55193972 13.81863777 -201.55843016 12.74407897 -198.8840332 10.73828125 C-197.19640469 9.09284345 -195.52999831 7.42539548 -193.8840332 5.73828125 C-172.53968834 -16.00132925 -143.28397826 -30.79387317 -112.8840332 -34.26171875 C-111.59432617 -34.42607422 -111.59432617 -34.42607422 -110.27856445 -34.59375 C-70.54310784 -38.99575775 -29.85227117 -26.75874789 0 0 Z M-101.8840332 -20.26171875 C-109.81683319 -8.05127209 -116.8840332 11.17406268 -116.8840332 25.73828125 C-101.7040332 25.73828125 -86.5240332 25.73828125 -70.8840332 25.73828125 C-72.18691715 17.92097756 -73.37355766 11.26970789 -75.8215332 3.92578125 C-76.4163965 2.14119137 -76.98717308 0.34648817 -77.46606445 -1.47265625 C-79.31607934 -8.33177579 -82.29322946 -14.14921787 -85.8840332 -20.26171875 C-86.5440332 -20.26171875 -87.2040332 -20.26171875 -87.8840332 -20.26171875 C-88.0902832 -20.90109375 -88.2965332 -21.54046875 -88.5090332 -22.19921875 C-89.77121434 -24.52165536 -89.77121434 -24.52165536 -92.6340332 -25.32421875 C-96.95474956 -25.24112805 -99.00753847 -23.24854878 -101.8840332 -20.26171875 Z M-75.8840332 -22.26171875 C-74.53742385 -18.02498085 -72.91351177 -14.02001515 -71.1340332 -9.94921875 C-66.61197313 0.82359123 -64.40185892 12.37028465 -61.8840332 23.73828125 C-57.68878854 24.84848202 -54.32830111 24.58260214 -50.05200195 23.9609375 C-48.11357422 23.68540039 -48.11357422 23.68540039 -46.13598633 23.40429688 C-44.78114173 23.20330615 -43.42632434 23.00213197 -42.0715332 22.80078125 C-40.6972944 22.60274967 -39.32294616 22.40547601 -37.94848633 22.20898438 C-34.59251689 21.72619579 -31.2378606 21.23569643 -27.8840332 20.73828125 C-28.2140332 19.74828125 -28.5440332 18.75828125 -28.8840332 17.73828125 C-29.5440332 17.73828125 -30.2040332 17.73828125 -30.8840332 17.73828125 C-31.5440332 15.75828125 -32.2040332 13.77828125 -32.8840332 11.73828125 C-33.5440332 11.73828125 -34.2040332 11.73828125 -34.8840332 11.73828125 C-35.3790332 9.75828125 -35.3790332 9.75828125 -35.8840332 7.73828125 C-36.5440332 7.73828125 -37.2040332 7.73828125 -37.8840332 7.73828125 C-38.0902832 7.05765625 -38.2965332 6.37703125 -38.5090332 5.67578125 C-41.99031175 -1.76149565 -47.94221149 -5.99533919 -54.59106445 -10.5625 C-56.8840332 -12.26171875 -56.8840332 -12.26171875 -57.8840332 -14.26171875 C-63.56077834 -17.87597863 -69.30588129 -20.79990721 -75.8840332 -22.26171875 Z M-141.37133789 -4.78417969 C-153.47736404 6.67412025 -153.47736404 6.67412025 -159.8840332 20.73828125 C-155.84705207 21.3370168 -151.80862058 21.92463279 -147.76855469 22.50219727 C-146.39572068 22.70002641 -145.02331263 22.90083612 -143.65136719 23.10473633 C-141.67409277 23.39806431 -139.69508485 23.67963036 -137.71606445 23.9609375 C-136.52730713 24.13375244 -135.3385498 24.30656738 -134.11376953 24.48461914 C-131.08028512 24.72286771 -128.80719256 24.51184609 -125.8840332 23.73828125 C-125.78606445 23.21363281 -125.6880957 22.68898437 -125.5871582 22.1484375 C-124.48243875 16.4248479 -123.24378389 10.73335698 -121.9465332 5.05078125 C-121.78894531 4.33865479 -121.63135742 3.62652832 -121.46899414 2.89282227 C-119.72154954 -4.65113069 -116.42461071 -11.28237623 -112.87231445 -18.125 C-111.74410167 -20.17189147 -111.74410167 -20.17189147 -111.8840332 -22.26171875 C-122.09296983 -22.26171875 -134.37350109 -11.52233988 -141.37133789 -4.78417969 Z M-187.8840332 12.73828125 C-184.9706257 14.28581872 -182.10076068 15.40097456 -178.9465332 16.36328125 C-178.11250977 16.62367187 -177.27848633 16.8840625 -176.41918945 17.15234375 C-172.67384132 18.01962682 -172.67384132 18.01962682 -168.8840332 17.73828125 C-166.90539871 15.33163588 -166.90539871 15.33163588 -165.3840332 12.17578125 C-163.39543329 8.4901267 -161.4595733 4.96637442 -158.9465332 1.61328125 C-156.68973058 -0.94284901 -156.68973058 -0.94284901 -156.8840332 -3.26171875 C-155.9887793 -3.65037109 -155.9887793 -3.65037109 -155.07543945 -4.046875 C-152.72144884 -5.35185019 -151.50117664 -6.61646088 -149.8215332 -8.69921875 C-147.93793801 -11.01249349 -146.02606127 -13.18325235 -143.8840332 -15.26171875 C-158.01670022 -15.26171875 -178.25798197 3.6215449 -187.8840332 12.73828125 Z M-43.8840332 -15.26171875 C-39.95476967 -10.61110729 -39.95476967 -10.61110729 -35.83325195 -6.1328125 C-28.94126752 1.10193493 -23.96293334 9.19215701 -18.8840332 17.73828125 C-11.95086583 17.16140648 -11.95086583 17.16140648 -5.3215332 15.17578125 C-4.1871582 14.70140625 -3.0527832 14.22703125 -1.8840332 13.73828125 C-1.8840332 12.74828125 -1.8840332 11.75828125 -1.8840332 10.73828125 C-5.34370537 7.07907422 -5.34370537 7.07907422 -9.8840332 5.73828125 C-9.8840332 5.07828125 -9.8840332 4.41828125 -9.8840332 3.73828125 C-11.52194032 2.69184059 -13.19411342 1.69846295 -14.8840332 0.73828125 C-15.5852832 0.18140625 -16.2865332 -0.37546875 -17.0090332 -0.94921875 C-18.9121943 -2.54844992 -18.9121943 -2.54844992 -21.8840332 -2.26171875 C-22.2140332 -3.25171875 -22.5440332 -4.24171875 -22.8840332 -5.26171875 C-24.98123192 -6.28453393 -24.98123192 -6.28453393 -27.4465332 -6.94921875 C-28.27282227 -7.20058594 -29.09911133 -7.45195313 -29.95043945 -7.7109375 C-30.58852539 -7.89269531 -31.22661133 -8.07445312 -31.8840332 -8.26171875 C-31.8840332 -8.92171875 -31.8840332 -9.58171875 -31.8840332 -10.26171875 C-33.50653261 -11.09991033 -35.13211817 -11.93213035 -36.7590332 -12.76171875 C-37.66395508 -13.22578125 -38.56887695 -13.68984375 -39.5012207 -14.16796875 C-41.7500018 -15.40077464 -41.7500018 -15.40077464 -43.8840332 -15.26171875 Z M-194.8840332 20.73828125 C-215.61927224 44.19289589 -224.95285127 71.83937029 -226.8840332 102.73828125 C-215.0040332 102.73828125 -203.1240332 102.73828125 -190.8840332 102.73828125 C-190.4715332 98.34515625 -190.0590332 93.95203125 -189.6340332 89.42578125 C-187.74507959 70.76404295 -183.9891392 53.83727002 -177.69018555 36.15917969 C-176.65495896 33.05036477 -175.78419773 29.88885708 -174.8840332 26.73828125 C-181.4840332 24.75828125 -188.0840332 22.77828125 -194.8840332 20.73828125 Z M6.1159668 20.73828125 C-3.7840332 23.70828125 -3.7840332 23.70828125 -13.8840332 26.73828125 C-13.29235352 28.28773437 -12.70067383 29.8371875 -12.09106445 31.43359375 C-3.14151477 55.27128554 0.82515077 77.41873565 3.1159668 102.73828125 C14.9959668 102.73828125 26.8759668 102.73828125 39.1159668 102.73828125 C37.82790657 82.12931764 33.92413114 63.9534436 24.1159668 45.73828125 C23.44552567 44.40684183 22.77798368 43.07392936 22.1159668 41.73828125 C21.4559668 41.73828125 20.7959668 41.73828125 20.1159668 41.73828125 C19.8272168 40.83078125 19.5384668 39.92328125 19.2409668 38.98828125 C17.53739212 34.06684328 15.96287051 30.1617331 11.1159668 27.73828125 C10.44930013 26.40494792 9.78263346 25.07161458 9.1159668 23.73828125 C8.1259668 22.74828125 7.1359668 21.75828125 6.1159668 20.73828125 Z M-164.8840332 28.73828125 C-171.70161775 44.12827241 -176.98517661 59.83528163 -179.6965332 76.48828125 C-179.86427246 77.51187744 -179.86427246 77.51187744 -180.03540039 78.55615234 C-181.20448429 86.60340877 -181.40345475 94.56844751 -181.8840332 102.73828125 C-166.0440332 102.73828125 -150.2040332 102.73828125 -133.8840332 102.73828125 C-133.8840332 100.75828125 -133.8840332 98.77828125 -133.8840332 96.73828125 C-133.5540332 96.40828125 -133.2240332 96.07828125 -132.8840332 95.73828125 C-132.80903817 94.04189368 -132.8008409 92.34244964 -132.8215332 90.64453125 C-132.83313477 89.09958984 -132.83313477 89.09958984 -132.8449707 87.5234375 C-132.85786133 86.43933594 -132.87075195 85.35523438 -132.8840332 84.23828125 C-132.90942402 82.10291391 -132.93049722 79.96748933 -132.9465332 77.83203125 C-132.95813477 76.88005859 -132.96973633 75.92808594 -132.98168945 74.94726562 C-132.8840332 72.73828125 -132.8840332 72.73828125 -131.8840332 71.73828125 C-131.59542106 69.61807754 -131.36767947 67.48953849 -131.1652832 65.359375 C-131.10248169 64.71388199 -131.03968018 64.06838898 -130.97497559 63.40333557 C-130.77380623 61.32786232 -130.57868948 59.25187459 -130.3840332 57.17578125 C-130.12534841 54.46597815 -129.8642996 51.75640613 -129.6027832 49.046875 C-129.4190918 47.14010986 -129.4190918 47.14010986 -129.23168945 45.19482422 C-128.84650489 41.36515919 -128.39462595 37.5529982 -127.8840332 33.73828125 C-128.79169434 33.62234619 -129.69935547 33.50641113 -130.63452148 33.38696289 C-134.02282254 32.95362591 -137.41098939 32.51926682 -140.79907227 32.08422852 C-142.26158537 31.89664812 -143.72414981 31.70946759 -145.18676758 31.52270508 C-147.29693216 31.25318474 -149.40690395 30.98219607 -151.5168457 30.7109375 C-152.78415527 30.54859619 -154.05146484 30.38625488 -155.35717773 30.21899414 C-158.54555866 29.78441557 -161.71347746 29.28662097 -164.8840332 28.73828125 Z M-23.8840332 28.73828125 C-24.65481201 28.85421631 -25.42559082 28.97015137 -26.21972656 29.08959961 C-29.75340026 29.6200881 -33.28746114 30.14795343 -36.8215332 30.67578125 C-38.03389648 30.85818359 -39.24625977 31.04058594 -40.49536133 31.22851562 C-46.94994997 32.19058168 -53.39195684 33.07296598 -59.8840332 33.73828125 C-59.76809814 34.76373047 -59.65216309 35.78917969 -59.53271484 36.84570312 C-57.41786501 55.66506865 -55.31787194 74.38916701 -55.02587891 93.34350586 C-54.83935251 96.49262368 -54.33016626 99.61534986 -53.8840332 102.73828125 C-38.0440332 102.73828125 -22.2040332 102.73828125 -5.8840332 102.73828125 C-6.85793671 87.96741135 -8.06370256 74.03081236 -11.8840332 59.73828125 C-12.11993164 58.83851563 -12.35583008 57.93875 -12.59887695 57.01171875 C-13.29221409 54.55837195 -14.06835064 52.15395652 -14.8840332 49.73828125 C-15.10349609 49.07876465 -15.32295898 48.41924805 -15.54907227 47.73974609 C-16.31686503 45.44387557 -17.09826639 43.15305862 -17.8840332 40.86328125 C-18.13330566 40.12456787 -18.38257813 39.38585449 -18.6394043 38.62475586 C-18.88513184 37.92229736 -19.13085938 37.21983887 -19.3840332 36.49609375 C-19.6005957 35.86848145 -19.8171582 35.24086914 -20.0402832 34.59423828 C-21.04457354 32.38514826 -22.37603021 30.63113918 -23.8840332 28.73828125 Z M-118.8840332 34.73828125 C-120.68363669 46.03979118 -122.15430601 57.32866075 -123.0715332 68.73828125 C-123.15516113 69.71909668 -123.23878906 70.69991211 -123.32495117 71.71044922 C-124.10486928 82.11103462 -123.8840332 92.21313801 -123.8840332 102.73828125 C-104.0840332 102.73828125 -84.2840332 102.73828125 -63.8840332 102.73828125 C-63.8840332 90.21977052 -63.90080684 78.24225024 -65.0559082 65.85961914 C-65.26202956 63.64356678 -65.45286854 61.42655869 -65.6418457 59.20898438 C-66.36352123 50.98467743 -67.36214974 42.85857473 -68.8840332 34.73828125 C-70.00938477 34.81046875 -71.13473633 34.88265625 -72.29418945 34.95703125 C-87.90734745 35.91905239 -103.28311948 35.80762173 -118.8840332 34.73828125 Z M-226.8840332 112.73828125 C-224.99466219 142.96821745 -216.00761298 170.57718 -195.8840332 193.73828125 C-188.9540332 191.75828125 -182.0240332 189.77828125 -174.8840332 187.73828125 C-175.6471582 185.61390625 -176.4102832 183.48953125 -177.1965332 181.30078125 C-178.10111467 178.78262204 -178.99778628 176.26284431 -179.8840332 173.73828125 C-180.13064697 173.04790771 -180.37726074 172.35753418 -180.63134766 171.64624023 C-182.68227715 165.7423286 -184.13891001 159.78383904 -185.4465332 153.67578125 C-185.66341797 152.66789551 -185.88030273 151.66000977 -186.10375977 150.62158203 C-188.75210624 138.00074425 -189.89271932 125.62536167 -190.8840332 112.73828125 C-202.7640332 112.73828125 -214.6440332 112.73828125 -226.8840332 112.73828125 Z M-181.8840332 112.73828125 C-180.21947028 137.70672516 -177.83568762 163.69736471 -164.8840332 185.73828125 C-160.07796822 185.19174043 -155.2725028 184.64028366 -150.4675293 184.08422852 C-148.8322688 183.89569451 -147.19685171 183.70851367 -145.5612793 183.52270508 C-143.21271122 183.2556605 -140.86474612 182.98378205 -138.5168457 182.7109375 C-137.41676682 182.58743675 -137.41676682 182.58743675 -136.29446411 182.46144104 C-132.46702103 182.05002687 -132.46702103 182.05002687 -128.8840332 180.73828125 C-128.79413758 176.42329124 -129.03990404 172.38472685 -129.60107422 168.09716797 C-130.2723187 162.50134037 -130.67290366 156.8722731 -131.1340332 151.25585938 C-131.2165332 150.30259766 -131.2990332 149.34933594 -131.3840332 148.3671875 C-131.49231445 147.06890015 -131.49231445 147.06890015 -131.6027832 145.74438477 C-131.67802423 143.74359551 -131.67802423 143.74359551 -132.8840332 142.73828125 C-132.95893392 141.12660501 -132.96724397 139.51172033 -132.9465332 137.8984375 C-132.93879883 136.91810547 -132.93106445 135.93777344 -132.9230957 134.92773438 C-132.89710283 132.8470046 -132.87106134 130.76627543 -132.8449707 128.68554688 C-132.83723633 127.70392578 -132.82950195 126.72230469 -132.8215332 125.7109375 C-132.80993164 124.80609619 -132.79833008 123.90125488 -132.78637695 122.96899414 C-132.73390593 120.69881341 -132.73390593 120.69881341 -133.8840332 118.73828125 C-133.8840332 116.75828125 -133.8840332 114.77828125 -133.8840332 112.73828125 C-149.7240332 112.73828125 -165.5640332 112.73828125 -181.8840332 112.73828125 Z M-123.8840332 112.73828125 C-123.94116095 130.07123617 -123.94116095 130.07123617 -123.0715332 147.30078125 C-123.0012793 148.32623047 -122.93102539 149.35167969 -122.85864258 150.40820312 C-122.07872925 160.65938393 -120.42174551 170.4868659 -118.8840332 180.73828125 C-102.3840332 180.73828125 -85.8840332 180.73828125 -68.8840332 180.73828125 C-65.71656775 159.07878701 -65.71656775 159.07878701 -64.9465332 137.51171875 C-64.8840332 134.73828125 -64.8840332 134.73828125 -63.8840332 133.73828125 C-63.8840332 126.80828125 -63.8840332 119.87828125 -63.8840332 112.73828125 C-83.6840332 112.73828125 -103.4840332 112.73828125 -123.8840332 112.73828125 Z M-53.8840332 112.73828125 C-54.6659396 117.70649351 -55.1032026 122.61028911 -55.3137207 127.63671875 C-55.38564664 129.17295655 -55.45809544 130.70916994 -55.53100586 132.24536133 C-55.56800598 133.04100494 -55.6050061 133.83664856 -55.64312744 134.65640259 C-56.38872991 150.46109395 -57.64769359 166.06373659 -59.8840332 181.73828125 C-55.4190688 182.45529954 -50.95333212 183.16722118 -46.48681641 183.87451172 C-44.96869185 184.11563799 -43.45078436 184.35813518 -41.93310547 184.60205078 C-39.7467373 184.95318824 -37.55962601 185.29932537 -35.37231445 185.64453125 C-34.69815994 185.75390015 -34.02400543 185.86326904 -33.329422 185.97595215 C-29.81274747 186.52575664 -26.44370137 186.85803459 -22.8840332 186.73828125 C-21.94172463 184.59445302 -21.00517657 182.44838172 -20.0715332 180.30078125 C-19.54946289 179.10582031 -19.02739258 177.91085938 -18.48950195 176.6796875 C-11.11223822 159.0560999 -7.50301163 139.89921951 -6.1965332 120.92578125 C-6.12354004 119.87438965 -6.12354004 119.87438965 -6.04907227 118.80175781 C-5.95069575 117.11590388 -5.91164383 115.42677735 -5.8840332 113.73828125 C-6.87370046 112.52823293 -6.87370046 112.52823293 -8.78858948 112.61802673 C-9.62131882 112.62024734 -10.45404816 112.62246796 -11.31201172 112.62475586 C-12.25291153 112.62483139 -13.19381134 112.62490692 -14.16322327 112.62498474 C-15.18612961 112.63014603 -16.20903595 112.63530731 -17.26293945 112.640625 C-18.8256382 112.64274742 -18.8256382 112.64274742 -20.41990662 112.64491272 C-23.76214414 112.65053045 -27.10431577 112.66308595 -30.4465332 112.67578125 C-32.70629786 112.68079397 -34.96606357 112.68535727 -37.22583008 112.68945312 C-42.77858711 112.70050564 -48.33130545 112.71726101 -53.8840332 112.73828125 Z M3.1159668 112.73828125 C2.7034668 117.13140625 2.2909668 121.52453125 1.8659668 126.05078125 C-0.28483668 147.29944045 -4.08276136 168.52302186 -13.8840332 187.73828125 C-13.8840332 188.39828125 -13.8840332 189.05828125 -13.8840332 189.73828125 C-3.9840332 192.70828125 -3.9840332 192.70828125 6.1159668 195.73828125 C8.0959668 193.42828125 10.0759668 191.11828125 12.1159668 188.73828125 C12.8997168 187.83078125 13.6834668 186.92328125 14.4909668 185.98828125 C16.40871207 183.7955167 16.40871207 183.7955167 16.1159668 180.73828125 C16.7759668 180.73828125 17.4359668 180.73828125 18.1159668 180.73828125 C18.95415837 179.11578184 19.78637839 177.49019628 20.6159668 175.86328125 C21.0800293 174.95835937 21.5440918 174.0534375 22.0222168 173.12109375 C23.25502268 170.87231266 23.25502268 170.87231266 23.1159668 168.73828125 C23.7759668 168.73828125 24.4359668 168.73828125 25.1159668 168.73828125 C30.61311557 155.84468792 35.47756975 143.30089305 37.8659668 129.42578125 C37.99390625 128.68465088 38.1218457 127.94352051 38.25366211 127.17993164 C38.42526855 126.10086548 38.42526855 126.10086548 38.6003418 125 C38.70056641 124.37053467 38.80079102 123.74106934 38.90405273 123.0925293 C39.21354049 119.65429144 39.1159668 116.19042004 39.1159668 112.73828125 C27.2359668 112.73828125 15.3559668 112.73828125 3.1159668 112.73828125 Z M-116.8840332 189.73828125 C-114.96224797 205.98087804 -110.77400744 228.49383564 -97.8840332 239.73828125 C-94.81157657 240.96149069 -94.81157657 240.96149069 -91.8840332 240.73828125 C-90.8940332 240.07828125 -89.9040332 239.41828125 -88.8840332 238.73828125 C-88.8840332 238.07828125 -88.8840332 237.41828125 -88.8840332 236.73828125 C-88.2240332 236.73828125 -87.5640332 236.73828125 -86.8840332 236.73828125 C-86.5540332 235.41828125 -86.2240332 234.09828125 -85.8840332 232.73828125 C-85.2240332 232.73828125 -84.5640332 232.73828125 -83.8840332 232.73828125 C-77.75304017 220.24048776 -70.8840332 204.85042192 -70.8840332 190.73828125 C-73.72716651 189.92853222 -76.24106285 189.61586266 -79.19360352 189.62475586 C-80.4544577 189.62486916 -80.4544577 189.62486916 -81.74078369 189.62498474 C-82.63883728 189.63014603 -83.53689087 189.63530731 -84.4621582 189.640625 C-85.85201935 189.64274742 -85.85201935 189.64274742 -87.2699585 189.64491272 C-90.22468313 189.65050301 -93.17933154 189.66305375 -96.1340332 189.67578125 C-98.13924044 189.6807975 -100.14444887 189.68536019 -102.1496582 189.68945312 C-107.06114583 189.70046926 -111.9725766 189.71772725 -116.8840332 189.73828125 Z M-146.7590332 192.17578125 C-147.80317383 192.31048828 -148.84731445 192.44519531 -149.9230957 192.58398438 C-155.06266206 193.10525414 -155.06266206 193.10525414 -159.8840332 194.73828125 C-154.41523091 210.0454314 -139.61725298 224.02583194 -125.8215332 232.05078125 C-125.2437915 232.38867676 -124.6660498 232.72657227 -124.07080078 233.07470703 C-120.06982418 235.31543545 -116.2951347 236.63129145 -111.8840332 237.73828125 C-112.90761776 234.32633272 -114.11265052 231.22522903 -115.79418945 228.09765625 C-118.02114061 223.69844032 -119.33813749 219.24736438 -120.5715332 214.48828125 C-120.88960937 213.30492187 -120.88960937 213.30492187 -121.21411133 212.09765625 C-121.96570311 209.29044908 -122.69900521 206.47978704 -123.40258789 203.66015625 C-124.04587575 201.09222418 -124.74742526 198.54154505 -125.4465332 195.98828125 C-125.71594727 195.0034375 -125.98536133 194.01859375 -126.26293945 193.00390625 C-126.46790039 192.25625 -126.67286133 191.50859375 -126.8840332 190.73828125 C-133.62536645 190.55236918 -140.08377611 191.2697331 -146.7590332 192.17578125 Z M-60.8840332 191.73828125 C-62.48120877 196.26487362 -63.72585399 200.84132684 -64.93969727 205.48046875 C-67.0901701 213.67168916 -69.27714626 221.58455513 -72.8059082 229.30078125 C-74.02674997 232.06094524 -74.96527797 234.86508306 -75.8840332 237.73828125 C-64.84288741 234.69796574 -55.20087373 228.59504124 -46.8840332 220.73828125 C-46.8840332 220.07828125 -46.8840332 219.41828125 -46.8840332 218.73828125 C-46.2240332 218.73828125 -45.5640332 218.73828125 -44.8840332 218.73828125 C-44.8840332 218.07828125 -44.8840332 217.41828125 -44.8840332 216.73828125 C-44.2240332 216.73828125 -43.5640332 216.73828125 -42.8840332 216.73828125 C-40.48583015 214.10143378 -40.48583015 214.10143378 -39.8840332 210.73828125 C-38.8940332 210.40828125 -37.9040332 210.07828125 -36.8840332 209.73828125 C-34.74708075 207.0351709 -34.74708075 207.0351709 -32.6965332 203.80078125 C-31.98110352 202.71925781 -31.26567383 201.63773438 -30.52856445 200.5234375 C-28.71455171 197.99032238 -28.71455171 197.99032238 -28.8840332 195.73828125 C-31.40451112 195.25718162 -33.9253869 194.77835522 -36.4465332 194.30078125 C-37.50324219 194.0987207 -37.50324219 194.0987207 -38.58129883 193.89257812 C-47.63576689 192.16448832 -47.63576689 192.16448832 -56.8215332 191.67578125 C-57.97975586 191.68931641 -57.97975586 191.68931641 -59.16137695 191.703125 C-60.0140918 191.72052734 -60.0140918 191.72052734 -60.8840332 191.73828125 Z M-181.6340332 198.73828125 C-182.33141602 198.9290625 -183.02879883 199.11984375 -183.74731445 199.31640625 C-185.46079638 199.78585335 -187.17258844 200.26146082 -188.8840332 200.73828125 C-177.31723381 212.34559483 -163.65637451 224.15365396 -147.8840332 229.73828125 C-147.2240332 229.40828125 -146.5640332 229.07828125 -145.8840332 228.73828125 C-147.50743125 227.0294412 -149.17722373 225.36381408 -150.8840332 223.73828125 C-151.5440332 223.73828125 -152.2040332 223.73828125 -152.8840332 223.73828125 C-153.3790332 222.25328125 -153.3790332 222.25328125 -153.8840332 220.73828125 C-155.19854517 219.05673023 -156.53495167 217.3922264 -157.8840332 215.73828125 C-159.28094251 213.73253033 -160.65557946 211.71110808 -162.0090332 209.67578125 C-162.69223633 208.65355469 -163.37543945 207.63132812 -164.0793457 206.578125 C-165.50705012 204.33149921 -166.76350536 202.14683852 -167.8840332 199.73828125 C-168.5440332 199.73828125 -169.2040332 199.73828125 -169.8840332 199.73828125 C-169.8840332 198.74828125 -169.8840332 197.75828125 -169.8840332 196.73828125 C-174.09347162 196.73828125 -177.62690575 197.61719455 -181.6340332 198.73828125 Z M-18.8840332 197.73828125 C-20.0390332 199.67703125 -21.1940332 201.61578125 -22.3840332 203.61328125 C-26.60659036 210.56297957 -31.2388352 217.22691044 -37.1184082 222.890625 C-39.11432505 224.55333349 -39.11432505 224.55333349 -38.8840332 226.73828125 C-39.5234082 227.02703125 -40.1627832 227.31578125 -40.8215332 227.61328125 C-43.03609399 228.56651576 -43.03609399 228.56651576 -43.8840332 230.73828125 C-39.21924228 229.32384235 -34.9801138 227.41176086 -30.6965332 225.11328125 C-30.04015869 224.76136719 -29.38378418 224.40945313 -28.70751953 224.046875 C-22.71549798 220.76349549 -17.26465121 216.94849292 -11.8840332 212.73828125 C-10.92754883 212.00867188 -9.97106445 211.2790625 -8.9855957 210.52734375 C-5.3494958 207.73368676 -5.3494958 207.73368676 -1.8840332 204.73828125 C-1.8840332 204.07828125 -1.8840332 203.41828125 -1.8840332 202.73828125 C-10.2990332 200.26328125 -10.2990332 200.26328125 -18.8840332 197.73828125 Z " fill="#101010" transform="translate(273.884033203125,72.26171875)"/>
<path d="M0 0 C0.33 0 0.66 0 1 0 C0.76427826 3.3452425 0.52625782 6.69029644 0.28515625 10.03515625 C0.10181341 12.58437515 -0.07815442 15.13384025 -0.25390625 17.68359375 C-0.33511719 18.81925781 -0.41632813 19.95492187 -0.5 21.125 C-0.5721875 22.15882813 -0.644375 23.19265625 -0.71875 24.2578125 C-1 27 -1 27 -2 31 C13.84 31 29.68 31 46 31 C45.505 28.03 45.505 28.03 45 25 C45.495 24.505 45.495 24.505 46 24 C46.08713831 22.29227642 46.10700007 20.58101351 46.09765625 18.87109375 C46.09443359 17.83662109 46.09121094 16.80214844 46.08789062 15.73632812 C46.07951172 14.64771484 46.07113281 13.55910156 46.0625 12.4375 C46.05798828 11.34501953 46.05347656 10.25253906 46.04882812 9.12695312 C46.03699826 6.41791505 46.02051543 3.70898401 46 1 C46.66 0.67 47.32 0.34 48 0 C48.02465392 4.53897705 48.04283789 9.07791543 48.05493164 13.61694336 C48.0599714 15.16219766 48.0668032 16.70744716 48.07543945 18.25268555 C48.08752076 20.46925029 48.09323173 22.68575218 48.09765625 24.90234375 C48.10281754 25.5971434 48.10797882 26.29194305 48.11329651 27.00779724 C48.11349277 28.6722933 48.06189129 30.33665499 48 32 C47 33 47 33 44.98155212 33.12025452 C44.09552811 33.11803391 43.20950409 33.11581329 42.29663086 33.11352539 C41.29566879 33.11344986 40.29470673 33.11337433 39.26341248 33.11329651 C38.1748848 33.10813522 37.08635712 33.10297394 35.96484375 33.09765625 C34.85645645 33.0962413 33.74806915 33.09482635 32.60609436 33.09336853 C29.04986931 33.08775033 25.49370617 33.07519475 21.9375 33.0625 C19.53320403 33.05748734 17.12890708 33.05292403 14.72460938 33.04882812 C8.81638496 33.03777499 2.9081969 33.02101917 -3 33 C-2.88848666 29.37445665 -2.75826485 25.74980383 -2.625 22.125 C-2.5940625 21.11179688 -2.563125 20.09859375 -2.53125 19.0546875 C-2.28000739 12.52237962 -1.50142207 6.36384183 0 0 Z " fill="#222222" transform="translate(94,144)"/>
<path d="M0 0 C16.5 0 33 0 50 0 C49 23 49 23 47 27 C47.33 19.08 47.66 11.16 48 3 C32.49 2.67 16.98 2.34 1 2 C1 4.31 1 6.62 1 9 C0.67 9 0.34 9 0 9 C0 6.03 0 3.06 0 0 Z " fill="#3A3A3A" transform="translate(219,183)"/>
<path d="M0 0 C16.83 0 33.66 0 51 0 C51.93491183 4.67455917 52.07972012 8.2965127 52 13 C51.67 13 51.34 13 51 13 C50.505 7.06 50.505 7.06 50 1 C48.87464844 1.144375 47.74929687 1.28875 46.58984375 1.4375 C36.67791284 2.65774758 27.00247224 3.34240828 17 3 C16.27876953 2.97534668 15.55753906 2.95069336 14.81445312 2.92529297 C12.58356195 2.84122623 10.35461106 2.73780029 8.125 2.625 C7.42810059 2.5943042 6.73120117 2.5636084 6.01318359 2.53198242 C4.33582665 2.43017752 2.66536758 2.22459156 1 2 C0.67 1.34 0.34 0.68 0 0 Z " fill="#424242" transform="translate(155,106)"/>
<path d="M0 0 C16.5 0 33 0 50 0 C50 10.56 50 21.12 50 32 C49.34 31.67 48.68 31.34 48 31 C48.00523682 30.34402832 48.01047363 29.68805664 48.01586914 29.01220703 C48.03661272 26.04981437 48.04965176 23.08743697 48.0625 20.125 C48.07506836 18.57619141 48.07506836 18.57619141 48.08789062 16.99609375 C48.09111328 16.00996094 48.09433594 15.02382812 48.09765625 14.0078125 C48.10289307 13.09660645 48.10812988 12.18540039 48.11352539 11.24658203 C48.14885565 8.96312491 48.14885565 8.96312491 47 7 C47.33 5.02 47.66 3.04 48 1 C32.16 1 16.32 1 0 1 C0 0.67 0 0.34 0 0 Z " fill="#565656" transform="translate(92,184)"/>
<path d="M0 0 C0.33 0 0.66 0 1 0 C1 10.56 1 21.12 1 32 C-15.5 32 -32 32 -49 32 C-49 31.67 -49 31.34 -49 31 C-33.16 31 -17.32 31 -1 31 C-1.495 28.03 -1.495 28.03 -2 25 C-1.505 24.505 -1.505 24.505 -1 24 C-0.92500497 22.30361243 -0.9168077 20.60416839 -0.9375 18.90625 C-0.94910156 17.36130859 -0.94910156 17.36130859 -0.9609375 15.78515625 C-0.97382813 14.70105469 -0.98671875 13.61695313 -1 12.5 C-1.02539081 10.36463266 -1.04646402 8.22920808 -1.0625 6.09375 C-1.07410156 5.14177734 -1.08570313 4.18980469 -1.09765625 3.20898438 C-1 1 -1 1 0 0 Z " fill="#545454" transform="translate(141,144)"/>
<path d="M0 0 C0.99 0 1.98 0 3 0 C1.61314777 3.1195572 -0.00189491 5.25855799 -2.40625 7.671875 C-3.06753906 8.33574219 -3.72882813 8.99960937 -4.41015625 9.68359375 C-5.09980469 10.36550781 -5.78945312 11.04742187 -6.5 11.75 C-7.18964844 12.44738281 -7.87929687 13.14476563 -8.58984375 13.86328125 C-9.25113281 14.52199219 -9.91242188 15.18070313 -10.59375 15.859375 C-11.19896484 16.46233398 -11.80417969 17.06529297 -12.42773438 17.68652344 C-14 19 -14 19 -16 19 C-15.67651262 15.98078447 -15.12918552 15.1076546 -12.75 13.125 C-11.8425 12.42375 -10.935 11.7225 -10 11 C-8.25044442 9.06116502 -6.64322038 7.03240416 -5 5 C-4.01834406 3.98198643 -3.02408568 2.9753197 -2 2 C-1.34 1.34 -0.68 0.68 0 0 Z " fill="#323232" transform="translate(132,54)"/>
<path d="M0 0 C0.66 0.33 1.32 0.66 2 1 C-2.0587813 5.83452107 -6.31762196 10.44622971 -10.75 14.9375 C-12.13445312 16.34322266 -12.13445312 16.34322266 -13.546875 17.77734375 C-16 20 -16 20 -19 21 C-18.67587628 17.97484531 -18.10171348 17.08758661 -15.75 15.0625 C-14.8425 14.381875 -13.935 13.70125 -13 13 C-11.31237149 11.3545622 -9.6459651 9.68711423 -8 8 C-5.33333333 5.33333333 -2.66666667 2.66666667 0 0 Z " fill="#333333" transform="translate(88,70)"/>
<path d="M0 0 C0.33 0 0.66 0 1 0 C1.66 4.95 2.32 9.9 3 15 C-1.95 15 -6.9 15 -12 15 C-12 14.67 -12 14.34 -12 14 C-5.565 13.505 -5.565 13.505 1 13 C0.649375 11.040625 0.29875 9.08125 -0.0625 7.0625 C-0.42269932 5.04962145 -0.74672551 3.02910711 -1 1 C-0.67 0.67 -0.34 0.34 0 0 Z " fill="#494949" transform="translate(144,240)"/>
<path d="M0 0 C2.93774463 -0.05390357 5.87450232 -0.0936255 8.8125 -0.125 C10.06256836 -0.15013672 10.06256836 -0.15013672 11.33789062 -0.17578125 C12.14033203 -0.18222656 12.94277344 -0.18867187 13.76953125 -0.1953125 C14.50792236 -0.20578613 15.24631348 -0.21625977 16.00708008 -0.22705078 C18 0 18 0 21 2 C16.98840698 3.40037237 12.97470629 2.95758094 8.8125 2.6875 C8.07580078 2.65205078 7.33910156 2.61660156 6.58007812 2.58007812 C4.71357098 2.46503123 2.85445837 2.24097482 1 2 C0.67 1.34 0.34 0.68 0 0 Z " fill="#585858" transform="translate(155,106)"/>
<path d="M0 0 C0.33 0 0.66 0 1 0 C1.18451025 17.85649203 1.18451025 17.85649203 0 26 C-1.83889089 22.89995405 -2.17902203 21.05317129 -1.6875 17.5 C-1.18104397 13.46041024 -0.76373548 9.43375313 -0.4375 5.375 C-0.31181641 3.83972656 -0.31181641 3.83972656 -0.18359375 2.2734375 C-0.12300781 1.52320313 -0.06242187 0.77296875 0 0 Z " fill="#636363" transform="translate(38,161)"/>
<path d="M0 0 C0.66 0 1.32 0 2 0 C2 0.66 2 1.32 2 2 C2.66 2 3.32 2 4 2 C4.33 3.32 4.66 4.64 5 6 C5.66 6 6.32 6 7 6 C6.67 6.99 6.34 7.98 6 9 C2.91910327 6.22719294 1.31224548 3.93673644 0 0 Z " fill="#727272" transform="translate(114,285)"/>
<path d="" fill="#E8E8E8" transform="translate(0,0)"/>
<path d="" fill="#E8E8E8" transform="translate(0,0)"/>
</svg>
